<?xml version="1.0" standalone="no"?>
<!DOCTYPE svg PUBLIC "-//W3C//DTD SVG 20010904//EN"
 "http://www.w3.org/TR/2001/REC-SVG-20010904/DTD/svg10.dtd">
<svg version="1.0" xmlns="http://www.w3.org/2000/svg"
 width="360.000000pt" height="360.000000pt" viewBox="0 0 360.000000 360.000000"
 preserveAspectRatio="xMidYMid meet">
<metadata>
Created by potrace 1.11, written by Peter Selinger 2001-2013
</metadata>
<g transform="translate(0.000000,360.000000) scale(0.100000,-0.100000)"
fill="#000000" stroke="none">
<path d="M1797 3554 c-2 -3 -40 -7 -83 -9 -44 -2 -97 -7 -119 -11 -22 -4 -52
-7 -67 -7 -16 0 -28 -3 -28 -7 0 -6 -42 -12 -92 -14 -14 -1 -24 -4 -21 -8 2
-5 -2 -8 -9 -9 -7 0 -22 -3 -33 -5 -11 -2 -28 -5 -37 -6 -10 -1 -18 -7 -18
-12 0 -5 -3 -7 -6 -4 -3 4 -21 0 -40 -8 -19 -8 -37 -15 -41 -15 -5 -1 -19 -6
-33 -11 -14 -6 -30 -11 -36 -12 -7 -1 -19 -8 -28 -15 -9 -7 -16 -11 -16 -7 0
4 -20 -5 -45 -18 -25 -14 -45 -22 -45 -18 0 4 -4 2 -8 -4 -4 -6 -28 -21 -54
-34 -27 -13 -48 -27 -48 -31 0 -4 -11 -10 -25 -13 -14 -4 -25 -11 -25 -17 0
-6 -5 -7 -10 -4 -6 3 -10 2 -10 -4 0 -6 -14 -18 -32 -27 -17 -9 -40 -25 -51
-35 -12 -10 -26 -19 -33 -19 -7 0 -16 -9 -19 -20 -3 -11 -11 -20 -16 -20 -18
0 -189 -165 -189 -182 0 -5 -5 -6 -10 -3 -6 3 -10 -1 -10 -9 0 -9 -4 -16 -10
-16 -5 0 -10 -7 -10 -16 0 -8 -4 -12 -10 -9 -5 3 -10 1 -10 -4 0 -6 -8 -20
-17 -30 -31 -34 -43 -50 -64 -86 -12 -19 -26 -35 -32 -35 -6 0 -7 -3 -4 -6 4
-4 -2 -19 -13 -34 -11 -16 -20 -33 -20 -38 0 -6 -4 -12 -9 -14 -5 -1 -11 -10
-13 -18 -2 -8 -9 -21 -16 -28 -7 -8 -10 -17 -8 -21 3 -4 -3 -13 -14 -21 -10
-7 -16 -19 -13 -27 3 -7 -1 -13 -8 -13 -7 0 -10 -3 -6 -6 3 -4 -2 -23 -13 -44
-11 -21 -16 -40 -13 -44 4 -3 2 -6 -4 -6 -5 0 -10 -6 -11 -12 -3 -33 -10 -52
-20 -56 -7 -2 -10 -8 -7 -12 7 -12 -5 -61 -14 -56 -3 2 -7 -8 -8 -22 -1 -25
-10 -67 -13 -67 -2 0 -9 -33 -14 -70 -3 -16 -6 -30 -7 -30 -2 0 -6 -28 -14
-95 -9 -72 -12 -380 -5 -380 4 0 7 -12 7 -27 0 -37 9 -89 18 -102 3 -6 0 -11
-7 -11 -9 0 -9 -3 -2 -8 17 -11 25 -42 11 -42 -9 0 -8 -3 1 -9 8 -4 13 -11 13
-15 -1 -3 -1 -7 0 -8 2 -8 9 -36 14 -60 3 -15 9 -38 15 -52 5 -13 6 -27 3 -30
-4 -3 -2 -6 4 -6 6 0 14 -15 18 -32 9 -40 8 -35 25 -80 8 -21 17 -38 21 -38 5
0 6 -9 4 -20 -2 -11 0 -20 4 -20 4 0 16 -19 27 -42 27 -63 134 -240 157 -260
11 -10 16 -18 11 -18 -5 0 -4 -4 1 -8 6 -4 28 -29 50 -57 52 -64 198 -210 219
-218 9 -4 16 -11 16 -17 0 -5 6 -10 13 -10 6 0 27 -14 44 -31 18 -16 33 -26
33 -22 0 4 6 1 13 -8 7 -8 27 -22 45 -30 17 -7 32 -17 32 -21 0 -3 16 -12 35
-18 19 -6 32 -16 29 -21 -3 -6 0 -9 7 -8 8 1 32 -6 54 -16 22 -10 43 -18 48
-17 4 1 7 -3 7 -9 0 -5 5 -7 10 -4 5 3 10 2 10 -3 0 -8 27 -20 46 -20 3 0 16
-8 30 -17 13 -9 29 -13 34 -10 6 3 10 1 10 -4 0 -6 7 -11 16 -11 8 0 25 -5 37
-12 12 -6 33 -13 46 -14 13 -2 27 -7 30 -11 3 -4 19 -9 36 -11 16 -2 32 -7 35
-10 3 -4 19 -8 35 -10 36 -3 70 -9 70 -12 0 -3 75 -12 112 -14 18 0 33 -3 33
-6 0 -3 27 -5 60 -5 34 0 60 -4 60 -10 0 -5 4 -4 9 4 6 10 13 11 29 2 11 -6
23 -8 26 -3 2 4 26 7 53 6 26 0 58 3 71 7 14 5 22 5 22 -2 0 -6 6 -7 12 -2 7
4 26 9 43 11 41 4 70 9 70 11 0 2 20 5 44 7 25 3 53 10 64 15 10 6 21 8 24 5
4 -3 12 -1 18 4 7 6 24 11 39 12 14 1 26 5 26 9 0 3 6 6 13 7 18 1 38 7 70 20
16 7 35 12 43 12 8 0 14 5 14 10 0 6 8 10 18 10 10 0 23 5 30 12 7 7 12 8 12
3 0 -6 4 -4 9 3 4 7 14 14 22 16 8 1 28 10 45 19 17 9 35 13 39 9 5 -4 5 -2 2
5 -4 6 5 15 23 22 17 5 30 15 30 21 0 6 5 8 10 5 6 -3 10 -1 10 5 0 7 5 10 12
8 6 -2 21 5 34 16 36 34 58 51 59 47 0 -3 28 16 62 41 34 25 59 48 56 52 -4 3
-1 6 6 6 6 0 25 14 41 30 17 17 30 28 30 26 0 -3 20 15 45 41 25 25 45 47 45
50 0 10 28 32 34 26 3 -4 6 1 6 11 0 9 7 19 15 22 8 4 15 10 15 15 0 5 7 17
14 26 42 51 98 131 109 156 6 15 15 27 19 27 5 0 8 8 8 19 0 10 7 24 15 31 8
7 15 19 15 27 0 8 5 11 10 8 6 -3 10 1 10 10 0 8 4 23 10 33 19 34 53 117 53
130 0 6 5 12 10 12 6 0 8 3 4 6 -3 4 0 22 8 40 8 19 14 37 15 39 0 3 1 7 1 10
1 3 3 10 4 15 1 6 3 11 5 13 3 4 12 41 17 74 3 18 10 30 15 27 6 -4 6 2 -1 13
-6 11 -7 23 -4 27 4 4 8 14 10 24 2 9 5 31 9 47 3 17 5 45 6 63 0 17 3 32 7
32 3 0 5 17 5 37 -1 21 4 44 10 52 8 11 8 13 -1 8 -12 -8 -13 39 0 59 3 6 3
14 0 18 -12 11 -10 66 2 66 6 0 7 3 0 8 -5 4 -11 29 -13 57 -2 27 -8 56 -14
62 -9 11 -5 16 12 15 10 -1 49 63 54 88 2 14 5 25 6 25 1 0 2 19 3 43 1 23 -1
42 -6 42 -4 0 -6 3 -6 8 1 4 0 9 -1 12 -2 5 -9 46 -12 68 -1 6 -5 12 -10 12
-4 0 -8 5 -8 12 0 12 -58 68 -71 68 -14 0 -49 42 -43 52 3 4 0 8 -7 8 -7 0
-10 3 -6 6 3 4 0 19 -8 34 -8 15 -11 30 -8 34 4 3 1 6 -5 6 -7 0 -12 7 -12 15
0 8 -9 30 -19 49 -11 19 -17 37 -14 40 4 3 1 6 -5 6 -7 0 -12 7 -12 15 0 8 -5
15 -11 15 -5 0 -7 5 -4 10 3 6 3 10 -2 10 -4 0 -17 18 -27 40 -11 22 -23 40
-28 40 -5 0 -7 4 -4 9 3 4 -3 16 -14 26 -11 10 -20 24 -20 32 0 7 -4 13 -9 13
-5 0 -13 9 -16 20 -4 11 -19 32 -33 45 -15 14 -24 25 -20 25 4 0 -9 17 -30 37
-20 21 -36 41 -35 45 2 4 -3 8 -11 8 -8 0 -18 9 -21 21 -4 11 -9 18 -12 16 -6
-7 -78 66 -75 76 1 5 -2 6 -8 2 -5 -3 -10 -1 -10 6 0 7 -3 10 -6 6 -3 -3 -19
8 -35 24 -16 16 -29 26 -29 22 -1 -4 -9 2 -20 15 -10 13 -23 23 -27 22 -4 0
-16 7 -26 15 -9 8 -22 15 -27 15 -6 0 -10 4 -10 9 0 5 -8 11 -17 14 -24 8 -77
40 -81 50 -2 4 -8 5 -13 1 -5 -3 -12 1 -15 10 -3 8 -12 12 -20 9 -7 -3 -17 2
-20 11 -3 9 -10 14 -14 11 -5 -3 -11 -1 -15 5 -4 6 -11 8 -16 5 -5 -4 -9 -1
-9 5 0 6 -4 8 -10 5 -5 -3 -10 -1 -10 6 0 7 -3 10 -6 7 -3 -4 -34 7 -69 23
-36 16 -71 29 -80 29 -8 0 -15 4 -15 9 0 5 -8 8 -17 6 -10 -1 -30 4 -45 11
-15 8 -36 14 -48 14 -11 0 -20 4 -20 8 0 4 -8 8 -17 9 -47 2 -83 8 -83 13 0 3
-21 6 -47 7 -27 2 -49 7 -51 13 -3 7 -8 7 -18 -1 -8 -6 -14 -8 -14 -3 0 5 -28
9 -63 9 -34 0 -74 3 -89 7 -14 3 -29 4 -31 2z"/>
</g>
</svg>
