<svg id="Capa_1" enable-background="new 0 0 497 497" height="65" viewBox="0 0 497 497" width="65"
    xmlns="http://www.w3.org/2000/svg">
    <g>
        <path
            d="m274.455 478.879c-1.368 2.543-4.636 8.384-11.114 12.796-2.877 1.959-7.818 5.325-14.803 5.325s-11.926-3.365-14.803-5.325c-6.219-4.236-9.528-9.652-11.114-12.796-15.949-37.48-31.898-74.961-47.847-112.441-1.203-1.951-3.105-4.546-5.981-7.028-2.159-1.863-4.266-3.142-5.981-4.016-64.868-37.298-104.432-104.81-101.677-174.685 3.726-94.491 84.345-180.732 187.403-180.709 103.884.023 184.904 87.689 187.402 182.717 1.827 69.508-38.534 136.183-103.67 172.678-1.462.918-3.222 2.216-4.984 4.016-2.486 2.539-4.037 5.118-4.984 7.028-6.542 16.436-44.962 107.078-47.847 112.44z"
            fill="#bf4a55" />
        <path
            d="m259.15 494.26c-2.75 1.45-6.29 2.74-10.61 2.74-6.99 0-11.93-3.37-14.81-5.32-6.22-4.24-9.52-9.66-11.11-12.8-15.95-37.48-31.9-74.96-47.85-112.44-1.2-1.95-3.1-4.55-5.98-7.03-2.16-1.86-4.26-3.14-5.98-4.02-64.87-37.29-104.43-104.81-101.67-174.68 2.8-71.15 49.2-137.62 115.96-166.11-55.87 32.26-93.45 92.3-95.96 156.11-2.76 69.87 36.8 137.39 101.67 174.68 1.72.88 3.82 2.16 5.98 4.02 2.88 2.48 4.78 5.08 5.98 7.03 15.95 37.48 37.9 87.96 53.85 125.44 1.54 3.04 4.68 8.22 10.53 12.38z"
            fill="#ba333e" />
        <circle cx="249" cy="188" fill="#f9f8f8" r="147" />
        <path
            d="m362.47 281.47c-26.96 32.69-67.78 53.53-113.47 53.53-81.19 0-147-65.81-147-147 0-45.69 20.84-86.51 53.53-113.47-20.95 25.41-33.53 57.96-33.53 93.47 0 81.19 65.81 147 147 147 35.51 0 68.06-12.58 93.47-33.53z"
            fill="#ede8e5" />
        <ellipse cx="249" cy="124.545" fill="#f0c585" rx="37.159" ry="37.342" />
        <path
            d="m283.25 139.04c-5.63 13.43-18.84 22.85-34.25 22.85-20.52 0-37.16-16.72-37.16-37.35 0-15.54 9.45-28.87 22.9-34.48-1.87 4.45-2.9 9.34-2.9 14.48 0 20.63 16.64 37.35 37.16 37.35 5.05 0 9.86-1.01 14.25-2.85z"
            fill="#ebaa61" />
        <path
            d="m311.273 259.08c1.282 16.819-9.734 29.772-26.346 29.698l-71.805.02c-16.682.055-27.414-6.041-26.435-29.418.388-6.323 1.451-24.43 15.132-40.477 3.615-4.241 20.257-22.607 47.146-22.437 27.916.177 44.492 20.191 47.562 23.898 1.478 1.784 13.105 17.188 14.746 38.716z"
            fill="#aef2ab" />
        <path
            d="m232.18 288.79-19.06.01c-16.68.05-27.41-6.04-26.43-29.42.39-6.32 1.45-24.43 15.13-40.48 3.61-4.24 20.26-22.6 47.15-22.43 3.38.02 6.59.33 9.63.88-20.8 3.67-33.66 17.89-36.78 21.55-13.68 16.05-14.74 34.16-15.13 40.48-.96 22.94 9.35 29.23 25.49 29.41z"
            fill="#96d094" />
    </g>
</svg>